<?xml version="1.0" standalone="no"?>
<!DOCTYPE svg PUBLIC "-//W3C//DTD SVG 20010904//EN"
 "http://www.w3.org/TR/2001/REC-SVG-20010904/DTD/svg10.dtd">
<svg version="1.0" xmlns="http://www.w3.org/2000/svg"
 width="1351.000000pt" height="1351.000000pt" viewBox="0 0 1351.000000 1351.000000"
 preserveAspectRatio="xMidYMid meet">
<metadata>
Created by potrace 1.14, written by Peter Selinger 2001-2017
</metadata>
<g transform="translate(0.000000,1351.000000) scale(0.100000,-0.100000)"
fill="#000000" stroke="none">
<path d="M7094 13462 c4 -7 8 -43 21 -202 2 -25 6 -74 10 -110 7 -69 9 -97 20
-225 3 -44 8 -96 10 -115 2 -19 7 -66 10 -105 3 -38 8 -90 10 -115 9 -87 15
-156 20 -225 3 -38 7 -81 10 -95 2 -14 6 -63 10 -110 4 -47 8 -98 10 -115 1
-16 6 -66 10 -110 3 -44 8 -96 10 -115 2 -19 6 -69 10 -110 3 -41 8 -95 10
-120 3 -25 7 -72 10 -105 3 -33 7 -82 10 -110 6 -58 12 -131 20 -230 3 -38 8
-92 10 -120 10 -97 15 -151 19 -205 9 -102 17 -195 21 -230 2 -19 7 -71 10
-115 3 -44 8 -91 10 -105 2 -14 7 -63 10 -110 4 -47 8 -98 10 -115 1 -16 6
-66 9 -110 4 -44 9 -98 11 -120 2 -22 7 -71 10 -110 3 -38 8 -90 10 -115 3
-25 7 -67 9 -95 8 -88 24 -260 31 -340 3 -30 7 -80 10 -110 3 -30 7 -79 10
-107 2 -29 7 -84 10 -123 3 -38 8 -86 10 -105 2 -19 7 -63 10 -97 10 -127 16
-189 20 -238 3 -27 12 -129 20 -225 9 -96 18 -197 21 -224 3 -27 7 -77 9 -111
2 -34 7 -80 9 -101 3 -21 8 -73 11 -114 3 -41 8 -91 10 -110 3 -19 7 -66 10
-105 3 -38 7 -92 10 -120 3 -27 7 -75 10 -105 2 -30 7 -84 10 -120 3 -36 8
-87 10 -115 3 -27 7 -70 9 -95 3 -25 8 -74 11 -110 5 -65 22 -255 30 -340 2
-25 7 -76 10 -115 3 -38 8 -92 10 -120 6 -50 7 -68 20 -220 3 -44 8 -97 11
-118 2 -20 2 -37 -1 -37 -3 0 -24 19 -48 43 -257 251 -626 503 -960 653 -56
25 -122 55 -145 65 -129 58 -563 185 -697 204 -11 1 -70 10 -132 19 -182 26
-266 31 -503 31 -204 0 -369 -8 -431 -20 -13 -3 -44 -8 -69 -11 -25 -3 -52 -7
-60 -9 -8 -1 -35 -6 -60 -10 -62 -10 -61 -10 -194 -40 -66 -15 -131 -31 -145
-37 -14 -5 -34 -12 -43 -14 -10 -2 -26 -6 -35 -8 -30 -7 -225 -77 -288 -103
-555 -227 -1040 -587 -1404 -1038 -40 -49 -79 -98 -87 -108 -33 -41 -164 -239
-210 -317 -159 -272 -313 -645 -368 -895 -2 -5 -8 -28 -14 -50 -12 -43 -57
-292 -66 -365 -16 -130 -21 -226 -21 -430 0 -257 8 -357 40 -550 2 -14 7 -43
10 -65 4 -22 10 -56 15 -75 5 -19 12 -52 16 -74 7 -50 77 -291 110 -381 56
-153 70 -186 144 -340 175 -361 380 -651 665 -940 398 -402 893 -703 1440
-874 118 -37 272 -77 335 -87 26 -4 94 -19 145 -31 17 -4 266 -8 555 -9 569
-3 521 -7 814 57 300 66 670 207 921 354 33 19 67 38 75 42 65 30 363 240 479
338 109 92 296 275 371 364 25 29 56 65 68 80 75 84 237 314 328 466 202 336
375 837 430 1240 4 28 8 58 10 67 26 148 26 632 -1 837 -3 19 -7 67 -10 105
-3 39 -8 91 -10 116 -3 25 -7 74 -10 110 -3 36 -8 88 -10 115 -3 28 -8 77 -10
110 -3 33 -7 80 -10 105 -3 25 -7 77 -10 115 -3 39 -7 86 -10 105 -2 19 -7 71
-10 115 -4 44 -8 91 -10 105 -2 14 -7 63 -10 110 -4 47 -9 103 -11 125 -4 38
-8 87 -19 220 -3 33 -8 80 -10 105 -3 25 -7 74 -10 110 -3 36 -7 85 -10 110
-2 25 -7 77 -10 115 -3 39 -8 86 -10 105 -2 19 -7 70 -10 113 -3 43 -8 95 -10
115 -1 20 -6 69 -9 107 -4 39 -9 90 -11 115 -12 129 -16 169 -20 215 -9 113
-16 192 -20 225 -2 19 -6 71 -10 115 -3 44 -8 91 -10 105 -2 14 -6 61 -9 105
-3 44 -8 105 -11 135 -8 83 -14 149 -20 215 -3 33 -8 84 -10 113 -8 85 -14
152 -20 227 -4 39 -8 81 -10 95 -2 14 -6 66 -10 115 -3 50 -8 101 -10 115 -2
14 -7 63 -11 110 -3 47 -7 99 -9 115 -1 17 -6 64 -9 105 -4 41 -9 91 -11 110
-2 19 -7 71 -10 115 -3 44 -7 96 -10 115 -2 19 -7 67 -10 105 -3 39 -8 95 -10
125 -3 30 -8 80 -10 110 -6 57 -11 119 -20 218 -3 31 -8 80 -10 107 -2 28 -7
82 -11 120 -4 39 -7 84 -9 100 -7 101 -17 203 -20 225 -2 14 -7 61 -10 105 -4
44 -8 96 -10 115 -2 19 -6 73 -10 120 -3 47 -8 96 -10 110 -2 14 -6 59 -10
100 -3 41 -8 98 -10 125 -3 28 -7 77 -10 110 -3 33 -7 84 -10 113 -3 28 -7 76
-10 105 -2 28 -7 75 -10 102 -2 28 -7 82 -10 120 -7 95 -14 172 -20 220 -2 22
-7 74 -10 115 -3 41 -8 89 -10 105 -2 17 -7 73 -10 125 -4 52 -9 98 -12 103
-10 17 14 3 115 -66 59 -41 199 -136 312 -212 113 -76 239 -162 280 -190 71
-49 190 -130 479 -325 164 -111 477 -324 616 -418 447 -305 882 -600 1135
-770 58 -39 110 -75 115 -79 32 -26 114 -54 173 -59 130 -12 235 27 327 122
156 160 150 417 -12 565 -28 26 -113 85 -328 229 -60 41 -114 78 -120 82 -10
9 -120 83 -415 282 -91 61 -167 114 -170 117 -3 4 -19 15 -37 25 -29 18 -281
188 -443 299 -118 81 -282 193 -435 296 -77 52 -142 96 -145 99 -14 14 -102
70 -109 70 -5 0 -11 3 -13 8 -1 4 -39 32 -83 61 -82 56 -219 149 -525 356 -96
65 -209 143 -250 172 -41 30 -83 56 -92 60 -10 3 -18 9 -18 14 0 5 -5 9 -10 9
-6 0 -34 17 -63 38 -29 21 -128 90 -222 152 -93 63 -174 118 -180 123 -11 9
-392 267 -525 355 -47 31 -87 59 -90 62 -3 3 -50 35 -105 73 -94 63 -123 78
-111 59z m-1514 -7386 c14 -3 45 -7 70 -10 85 -11 112 -15 213 -37 515 -108
991 -370 1370 -754 190 -192 355 -424 481 -675 97 -194 181 -432 212 -600 3
-14 7 -32 9 -40 10 -33 34 -190 42 -270 10 -107 10 -420 0 -520 -48 -474 -228
-935 -515 -1319 -57 -77 -80 -104 -162 -195 -284 -316 -667 -573 -1075 -721
-125 -45 -349 -107 -430 -119 -22 -3 -51 -8 -65 -10 -103 -21 -246 -31 -435
-31 -287 0 -454 20 -700 85 -223 59 -452 151 -638 256 -96 55 -279 175 -305
201 -7 7 -16 13 -20 13 -4 0 -23 15 -43 33 -20 17 -61 52 -90 77 -299 251
-587 662 -732 1045 -43 116 -93 270 -102 317 -4 20 -26 122 -30 138 -2 7 -17
110 -21 140 -2 14 -7 50 -11 80 -9 71 -9 468 0 540 4 30 10 75 13 100 44 343
196 750 391 1050 50 77 152 218 178 246 5 6 30 35 54 63 56 66 192 203 256
258 28 23 64 54 80 68 43 37 208 154 290 205 76 47 311 170 325 170 5 0 33 11
62 24 200 91 518 171 763 191 38 4 71 8 73 10 6 6 463 -2 492 -9z"/>
</g>
</svg>
